<svg width="56" height="52" viewBox="0 0 56 52" fill="none" xmlns="http://www.w3.org/2000/svg">
<path d="M2.88995 8.99676C-2.90326 18.9727 0.779592 34.1117 7.18594 43.2911C10.3837 47.8803 13.6213 51.9998 18.0556 51.9998C18.1392 51.9998 18.223 51.9982 18.3088 51.9949C20.3922 51.9124 21.8978 51.2758 23.3534 50.6607C24.9877 49.9696 26.6779 49.255 29.3291 49.255C31.8513 49.255 33.4608 49.9464 35.0174 50.6148C36.5514 51.2734 38.1316 51.9547 40.4664 51.9113C45.4613 51.819 48.5281 47.3738 51.2339 43.4523C54.0573 39.3578 55.4737 35.3823 55.9516 33.8632L55.9709 33.8027C56.0619 33.5327 55.9334 33.238 55.6725 33.1192C55.6653 33.1158 55.6388 33.1049 55.6314 33.1018C54.7518 32.7448 47.0361 29.3482 46.955 20.0904C46.8797 12.5689 52.7432 8.58586 53.9192 7.86395L53.974 7.83006C54.1014 7.74868 54.1901 7.61959 54.2202 7.472C54.2503 7.32463 54.2189 7.17124 54.1335 7.04728C50.0862 1.16984 43.883 0.284059 41.3855 0.177489C41.0231 0.141593 40.649 0.123535 40.2734 0.123535C37.3401 0.123535 34.5301 1.22291 32.2725 2.10624C30.7142 2.71601 29.3682 3.24262 28.4398 3.24262C27.3967 3.24262 26.043 2.70954 24.4755 2.09242C22.3793 1.26683 20.0033 0.331325 17.4881 0.331325C17.4281 0.331325 17.369 0.331995 17.3109 0.33311C11.4626 0.4185 5.93652 3.73869 2.88995 8.99676Z" fill="black"/>
</svg>
